Coordinates
version=1
nRows=8
nColumns=40
inDegrees=yes

Units are S.I. units (second, meters, Newtons, ...)
If the header above contains a line with 'inDegrees', this indicates whether rotational values are in degrees (yes) or radians (no).

endheader
time	pelvis_tilt	pelvis_list	pelvis_rotation	pelvis_tx	pelvis_ty	pelvis_tz	hip_flexion_r	hip_adduction_r	hip_rotation_r	knee_angle_r	knee_angle_r_beta	ankle_angle_r	subtalar_angle_r	mtp_angle_r	hip_flexion_l	hip_adduction_l	hip_rotation_l	knee_angle_l	knee_angle_l_beta	ankle_angle_l	subtalar_angle_l	mtp_angle_l	lumbar_extension	lumbar_bending	lumbar_rotation	arm_flex_r	arm_add_r	arm_rot_r	elbow_flex_r	pro_sup_r	wrist_flex_r	wrist_dev_r	arm_flex_l	arm_add_l	arm_rot_l	elbow_flex_l	pro_sup_l	wrist_flex_l	wrist_dev_l
      4.98500000	    -12.99851396	      0.02846118	     -2.94669658	     -0.24734310	      1.23305332	     -0.89493921	     16.93185931	     -2.82729809	    -23.46501199	      4.18955238	      0.07312148	    -38.73966220	      0.00000000	      0.00000000	     15.67200379	     -6.60580925	    -20.62190877	      6.14455498	      0.10724272	    -38.17221620	      0.00000000	      0.00000000	    -11.20857450	    -17.35527012	    -42.47890460	     33.68120841	    -21.27664601	     89.58251682	     71.40385261	     88.59535937	      0.00000000	      0.00000000	    -65.01382447	     -4.70332687	    -27.42798070	    111.10529222	     88.02157998	      0.00000000	      0.00000000
      4.99000000	    -12.86144755	     -0.17788479	     -2.96342042	     -0.24738008	      1.24111475	     -0.89456477	     16.68414072	     -2.54611460	    -23.24393162	      3.73602626	      0.06520596	    -38.57746103	      0.00000000	      0.00000000	     15.50842889	     -6.82060356	    -21.80960238	      5.78827337	      0.10102443	    -37.54516483	      0.00000000	      0.00000000	    -11.46059422	    -17.13854163	    -42.57934785	     33.69729499	    -21.23566625	     89.58413266	     71.09971545	     88.58943354	      0.00000000	      0.00000000	    -65.10073708	     -4.52494406	    -27.49237408	    110.96843496	     88.02901085	      0.00000000	      0.00000000
      4.99500000	    -12.75286973	     -0.32108970	     -2.97458289	     -0.24744726	      1.24880396	     -0.89429912	     16.48577536	     -2.35744850	    -23.37087475	      3.32489971	      0.05803045	    -38.37383257	      0.00000000	      0.00000000	     15.41348460	     -6.96002371	    -23.15943482	      5.56499552	      0.09712749	    -36.80637563	      0.00000000	      0.00000000	    -11.61528012	    -16.98596166	    -42.59771761	     33.61589996	    -21.33151020	     89.59359089	     70.85992889	     88.61371498	      0.00000000	      0.00000000	    -65.20000290	     -4.39985698	    -27.47961506	    110.84363198	     88.03113161	      0.00000000	      0.00000000
      5.00000000	    -12.63057951	     -0.49870281	     -2.86110065	     -0.24737013	      1.25631578	     -0.89410567	     16.27514243	     -2.17975831	    -23.92787973	      3.02287047	      0.05275904	    -38.10634386	      0.00000000	      0.00000000	     15.36331880	     -7.12647361	    -24.58355468	      5.54812232	      0.09683300	    -36.28184630	      0.00000000	      0.00000000	    -11.76894778	    -16.78151270	    -42.70651176	     33.55663398	    -21.42456190	     89.59228805	     70.62647940	     88.60736068	      0.00000000	      0.00000000	    -65.35306871	     -4.37695661	    -27.46903098	    110.93229569	     87.99731711	      0.00000000	      0.00000000
      5.00500000	    -12.66112799	     -0.59484956	     -2.77048152	     -0.24767019	      1.26325971	     -0.89393126	     16.28738310	     -2.08730117	    -24.36058705	      2.81241537	      0.04908591	    -37.80786682	      0.00000000	      0.00000000	     15.44863182	     -7.16591822	    -25.65781875	      5.37918357	      0.09388446	    -35.73408738	      0.00000000	      0.00000000	    -11.77323887	    -16.65495468	    -42.86767518	     33.56651838	    -21.50324923	     89.59320128	     70.53242526	     88.59493276	      0.00000000	      0.00000000	    -65.60611671	     -4.34853169	    -27.33638613	    110.89115987	     88.01410579	      0.00000000	      0.00000000
      5.01000000	    -12.43730450	     -0.66468225	     -2.71752181	     -0.24778087	      1.27039245	     -0.89373856	     16.08983447	     -2.05706653	    -25.23374751	      2.77408791	      0.04841697	    -37.60145543	      0.00000000	      0.00000000	     15.41349524	     -7.26952777	    -27.33318718	      5.69227999	      0.09934903	    -35.16389235	      0.00000000	      0.00000000	    -12.02559105	    -16.58057604	    -42.86192927	     33.51245498	    -21.67496908	     89.58499096	     70.34687067	     88.59453659	      0.00000000	      0.00000000	    -65.77257296	     -4.35816860	    -27.25030645	    110.96050182	     88.01103751	      0.00000000	      0.00000000
      5.01500000	    -12.49933658	     -0.85879345	     -2.36860937	     -0.24861137	      1.27685179	     -0.89372828	     16.18086627	     -1.92786461	    -26.07583847	      2.71146724	      0.04732403	    -37.38608185	      0.00000000	      0.00000000	     15.78515835	     -7.42347820	    -27.87894758	      5.94363255	      0.10373596	    -34.95306036	      0.00000000	      0.00000000	    -12.12693238	    -16.30367130	    -43.22775821	     33.54008558	    -21.79515464	     89.58156672	     70.38110084	     88.58209192	      0.00000000	      0.00000000	    -66.07148184	     -4.40559744	    -27.21800729	    111.20629787	     87.99415589	      0.00000000	      0.00000000
      5.02000000	    -12.47888530	     -0.89594380	     -2.23084948	     -0.24901292	      1.28320610	     -0.89373255	     16.20358310	     -1.94275705	    -26.18958163	      2.71254195	      0.04734279	    -37.33579035	      0.00000000	      0.00000000	     15.87931425	     -7.36287419	    -28.00602163	      5.93215272	      0.10353560	    -34.94061162	      0.00000000	      0.00000000	    -12.15234133	    -16.24214952	    -43.26664879	     33.44904543	    -22.03652903	     89.56412691	     70.31268297	     88.58575906	      0.00000000	      0.00000000	    -66.21229435	     -4.41087020	    -27.20460674	    111.20948056	     87.99575946	      0.00000000	      0.00000000
